<svg width="162" height="35" viewBox="0 0 162 35" fill="none" xmlns="http://www.w3.org/2000/svg">
<path d="M26.5878 28.9346C23.1723 28.1263 20.2997 26.8266 18.049 25.0724C18.527 24.3375 18.9686 23.5723 19.3615 22.7837C21.0376 19.438 21.6555 16.307 21.8775 14.6783L26.3921 15.5819L26.3998 14.1899C26.4416 6.39902 20.7166 0.0356926 13.6404 0.000155914C6.56341 -0.0361369 0.771119 6.26822 0.729354 14.0591L0.721619 15.4624L5.25784 14.5755C5.46203 16.2117 6.04056 19.3608 7.68644 22.73C8.07084 23.5171 8.50397 24.2921 8.97422 25.0263C6.71114 26.757 3.83703 28.0212 0.431579 28.8007L0 28.8998L1.03332 31.0048L1.29474 30.9405C4.81621 30.0959 7.84268 28.7259 10.2945 26.8772C10.7647 27.4745 11.2659 28.0416 11.7919 28.586C9.21166 30.601 6.03902 31.9764 2.36054 32.6773L1.89261 32.7642L2.93211 34.8926L3.13862 34.8518C7.14039 34.0398 10.6232 32.4572 13.4849 30.1405C16.2971 32.4625 19.7266 34.0738 23.6765 34.9327L23.9983 35L25.0602 32.8822L24.5629 32.7846C20.8976 32.0459 17.7466 30.6388 15.1942 28.5974C15.7256 28.0651 16.233 27.4965 16.7094 26.9105C19.1535 28.7902 22.183 30.192 25.72 31.0721L25.9443 31.1265L27 29.0268L26.5878 28.9353V28.9346ZM13.4586 10.9863C12.2985 10.9802 11.1259 11.0929 9.97737 11.319L3.16878 12.6512C3.83239 6.70903 8.31912 2.26089 13.6512 2.28887C18.9825 2.31609 23.4221 6.81564 24.0215 12.7699L16.827 11.3303C15.7109 11.1103 14.5817 10.9916 13.4586 10.9863ZM13.536 23.781C13.9822 24.3481 14.4772 24.8917 14.997 25.4059C14.5383 25.9865 14.0433 26.5483 13.5244 27.0632C13.0108 26.5377 12.522 25.976 12.0641 25.3854C12.5893 24.8766 13.0835 24.3382 13.536 23.7817V23.781ZM9.72755 13.6961C9.80953 15.3611 10.197 17.8842 11.549 20.6379C11.7354 21.0197 11.9396 21.4008 12.1623 21.7766C11.7339 22.3686 11.2574 22.9311 10.7446 23.4581C10.4198 22.9213 10.1127 22.355 9.83042 21.7826C8.28663 18.6418 7.75605 15.6658 7.57584 14.1196L9.72755 13.6969V13.6961ZM15.1277 13.3793C15.0728 14.6035 14.7866 16.927 13.5592 19.4531C12.3163 16.8249 12.0927 14.3623 12.0556 13.3332C13.0765 13.2432 14.1083 13.2606 15.1285 13.3786L15.1277 13.3793ZM14.9313 21.797C15.1579 21.4235 15.3667 21.0379 15.557 20.6644C16.926 17.9484 17.3459 15.4473 17.4519 13.7952L19.6051 14.2284C19.4025 15.7671 18.834 18.731 17.2694 21.8325C16.9809 22.4079 16.6684 22.9712 16.3312 23.5043C15.8238 22.9606 15.3535 22.3936 14.9313 21.797Z" fill="#780D69"/>
<path d="M57.6625 8.63394C55.844 7.45453 53.4976 6.84924 50.6884 6.83411L43.449 6.79584L43.3395 27.7271L46.5146 27.744L46.5413 22.5947L50.5166 22.6151C53.365 22.6303 55.7425 22.049 57.5824 20.8892C59.4383 19.7196 60.3863 17.6625 60.4015 14.7758C60.4166 11.89 59.4944 9.82315 57.6616 8.63306L57.6625 8.63394ZM46.6099 9.4858L50.497 9.50627C52.7499 9.51784 54.4376 9.95756 55.5138 10.8112C56.5819 11.6595 57.1187 12.9884 57.1089 14.7589C57.1 16.5302 56.5436 17.8583 55.4577 18.7048C54.3637 19.5576 52.6761 19.9839 50.4427 19.9724L46.5556 19.9519L46.6107 9.4849L46.6099 9.4858Z" fill="#780D69"/>
<path d="M63.3974 6.30923L63.2847 27.8322L66.312 27.848L66.4247 6.32508L63.3974 6.30923Z" fill="#780D69"/>
<path d="M82.1754 14.4677C80.923 13.3933 79.2798 12.8432 77.2904 12.8334C75.7799 12.8254 74.4215 13.136 73.2537 13.7574C72.0832 14.3804 71.1575 15.2706 70.5041 16.4037C69.8508 17.5359 69.5152 18.8658 69.5072 20.3585C69.4992 21.9091 69.8249 23.2879 70.4765 24.4567C71.129 25.6281 72.1108 26.5538 73.3926 27.208C74.6708 27.8605 76.2338 28.1961 78.0381 28.2059C80.0213 28.2165 81.8247 27.7421 83.3985 26.7977L83.451 26.7665L83.4625 24.5172L83.305 24.5964C82.4647 25.021 81.6396 25.3325 80.8527 25.5221C80.0658 25.7126 79.2327 25.8061 78.3764 25.8016C76.557 25.7918 75.1488 25.3753 74.191 24.5626C73.2599 23.7721 72.7063 22.6194 72.5434 21.1347L83.7545 21.1935L83.7741 21.1098C83.9566 20.3372 84.0509 19.6322 84.0545 19.0153C84.0643 17.0775 83.4323 15.5483 82.1763 14.4695L82.1754 14.4677ZM74.1278 16.1473C74.9663 15.518 76.0264 15.2029 77.278 15.2091C78.5063 15.2154 79.465 15.5394 80.1281 16.1714C80.7895 16.8016 81.1224 17.6632 81.1171 18.7323V18.8311L72.5932 18.7866C72.806 17.6401 73.3222 16.7526 74.1278 16.1482V16.1473Z" fill="#780D69"/>
<path d="M92.9745 12.9153C91.1115 12.9055 89.4096 13.2891 87.9177 14.0555L87.859 14.0858L87.8465 16.4856L88.0032 16.409C89.5431 15.6586 91.0723 15.2821 92.5481 15.2901C93.9563 15.2973 95.0467 15.6044 95.7909 16.2016C96.4985 16.7704 96.9311 17.6872 97.0789 18.9272C95.8959 18.54 94.6061 18.3406 93.2424 18.3335C91.1765 18.3228 89.5244 18.759 88.3325 19.6313C87.1308 20.5107 86.5166 21.7418 86.5086 23.2897C86.5006 24.8154 87.0303 26.0411 88.0815 26.9321C89.1274 27.8186 90.4777 28.2726 92.0951 28.2806C93.2513 28.2868 94.2955 28.0492 95.198 27.5739C95.9867 27.1582 96.632 26.5671 97.1198 25.8132L97.1082 28.0109L100.106 28.0269L100.148 20.1066C100.173 15.3613 97.7598 12.9429 92.9754 12.918L92.9745 12.9153ZM97.143 21.294V21.4498C97.135 22.8161 96.7362 23.9288 95.9555 24.7584C95.1767 25.5853 94.1014 26.0019 92.7582 25.9948C91.7809 25.9894 90.9833 25.7491 90.3869 25.28C89.7905 24.8109 89.5021 24.1843 89.5066 23.3636C89.511 22.5447 89.8377 21.9225 90.5062 21.4596C91.1773 20.9949 92.2232 20.7635 93.6145 20.7706C94.777 20.7769 95.9636 20.9531 97.1439 21.2949L97.143 21.294Z" fill="#780D69"/>
<path d="M112.691 20.1895C112.062 19.8904 111.203 19.5655 110.138 19.2237L109.488 19.0136C108.341 18.638 107.518 18.2979 107.046 18.0051C106.594 17.7256 106.375 17.358 106.378 16.8809C106.381 16.3495 106.619 15.9809 107.106 15.754C107.614 15.5181 108.37 15.4015 109.356 15.4059C110.837 15.4139 112.386 15.689 113.963 16.2231L114.105 16.2711L114.118 13.8268L114.048 13.8001C113.472 13.5785 112.77 13.3889 111.961 13.2367C111.149 13.0836 110.277 13.0044 109.368 12.999C107.739 12.9901 106.345 13.3017 105.226 13.9239C104.087 14.5567 103.505 15.5866 103.498 16.9832C103.492 17.9321 103.731 18.7127 104.205 19.3038C104.673 19.8886 105.247 20.3399 105.91 20.6452C106.561 20.9452 107.469 21.2799 108.609 21.6404C109.818 22.0382 110.725 22.4085 111.306 22.7406C111.865 23.0619 112.135 23.4874 112.132 24.0419C112.128 24.7148 111.845 25.1848 111.266 25.4804C110.671 25.783 109.752 25.9334 108.531 25.9272C106.739 25.9174 105.023 25.5436 103.433 24.8154L103.28 24.746L103.267 27.2277L103.324 27.2588C103.92 27.5811 104.711 27.8481 105.672 28.051C106.632 28.254 107.63 28.3599 108.637 28.3644C110.484 28.3742 112.019 28.0083 113.198 27.2766C114.395 26.5352 115.005 25.3824 115.013 23.8505C115.019 22.9034 114.791 22.1237 114.337 21.5318C113.887 20.9461 113.334 20.4948 112.692 20.1895H112.691Z" fill="#780D69"/>
<path d="M123.662 13.0755C121.798 13.0657 120.097 13.4494 118.605 14.2157L118.546 14.246L118.534 16.6458L118.69 16.5692C120.23 15.8189 121.759 15.4423 123.235 15.4504C124.643 15.4575 125.734 15.7646 126.478 16.3618C127.186 16.9306 127.618 17.8475 127.766 19.0874C126.583 18.7002 125.293 18.5008 123.929 18.4937C121.863 18.483 120.211 18.9192 119.02 19.7915C117.818 20.6709 117.204 21.902 117.196 23.4499C117.188 24.9978 117.717 26.2013 118.769 27.0923C119.814 27.9789 121.165 28.4328 122.782 28.4408C123.938 28.4471 124.982 28.2094 125.885 27.7341C126.674 27.3184 127.319 26.7273 127.807 25.9734L127.795 28.1711L130.793 28.1872L130.835 20.2668C130.86 15.5216 128.447 13.1031 123.662 13.0782L123.662 13.0755ZM127.83 21.4542V21.61C127.822 22.9764 127.423 24.089 126.643 24.9186C125.864 25.7455 124.788 26.1621 123.445 26.155C122.468 26.1497 121.67 25.9093 121.074 25.4402C120.478 24.9711 120.189 24.3445 120.194 23.5238C120.198 22.7031 120.525 22.0827 121.193 21.6198C121.864 21.1552 122.91 20.9237 124.302 20.9309C125.464 20.9371 126.651 21.1133 127.831 21.4551L127.83 21.4542Z" fill="#780D69"/>
<path d="M143.281 13.1778C142.025 13.1716 140.896 13.4386 139.924 13.9727C139.071 14.4418 138.381 15.105 137.87 15.9461L137.883 13.4449L134.856 13.4289L134.779 28.2049L137.806 28.221L137.841 21.3955C137.85 19.6143 138.279 18.1901 139.113 17.1638C139.94 16.1446 141.09 15.631 142.528 15.639C143.48 15.6444 144.195 15.8767 144.654 16.3298C145.116 16.7873 145.406 17.3659 145.516 18.0504C145.629 18.7518 145.683 19.6722 145.678 20.7857L145.639 28.2628L148.666 28.2788L148.708 20.3585C148.72 18.1189 148.315 16.3494 147.505 15.0987C146.684 13.8348 145.263 13.1885 143.281 13.1787V13.1778Z" fill="#780D69"/>
<path d="M161.857 25.4438C161.132 25.6744 160.557 25.8346 160.148 25.92C159.743 26.0046 159.263 26.0464 158.721 26.0429C157.611 26.0366 156.771 25.7589 156.226 25.2177C155.681 24.6765 155.408 23.79 155.414 22.583L155.449 15.9435L160.983 15.9729L160.995 13.5669L155.461 13.5375L155.486 8.83231L152.459 8.81628L152.388 22.4485C152.366 26.5262 154.303 28.6038 158.146 28.6242C159.555 28.6313 160.825 28.3964 161.922 27.9246L161.987 27.897L162 25.3993L161.858 25.4447L161.857 25.4438Z" fill="#780D69"/>
</svg>
